<svg xmlns="http://www.w3.org/2000/svg" xmlns:xlink="http://www.w3.org/1999/xlink" width="433" zoomAndPan="magnify" viewBox="0 0 324.75 68.249996" height="91" preserveAspectRatio="xMidYMid meet" version="1.0"><defs><g/><clipPath id="1a7a6146a7"><path d="M 17.152344 0.855469 L 83 0.855469 L 83 66.878906 L 17.152344 66.878906 Z M 17.152344 0.855469 " clip-rule="nonzero"/></clipPath></defs><g clip-path="url(#1a7a6146a7)"><path fill="#292929" d="M 73.578125 66.652344 L 26.53125 66.652344 C 21.351562 66.652344 17.15625 62.457031 17.15625 57.28125 L 17.15625 10.230469 C 17.15625 5.054688 21.351562 0.859375 26.53125 0.859375 L 73.578125 0.859375 C 78.753906 0.859375 82.949219 5.054688 82.949219 10.230469 L 82.949219 57.28125 C 82.949219 62.457031 78.753906 66.652344 73.578125 66.652344 " fill-opacity="1" fill-rule="nonzero"/></g><path fill="#ffffff" d="M 59.289062 49.210938 C 58.277344 49.933594 56.972656 50.445312 55.386719 50.742188 C 54.292969 50.949219 53.066406 51.050781 51.714844 51.050781 L 47.328125 51.050781 C 48.730469 50.15625 49.914062 48.976562 50.863281 47.527344 C 52.714844 44.695312 53.652344 40.914062 53.652344 36.289062 C 53.652344 34.558594 53.308594 32.601562 52.738281 31.042969 C 52.28125 29.796875 51.695312 28.847656 51.007812 28.226562 C 51.480469 27.390625 51.878906 26.476562 52.191406 25.480469 C 52.386719 24.863281 52.546875 24.222656 52.667969 23.570312 C 52.867188 22.523438 52.972656 21.4375 52.984375 20.320312 C 53.035156 20.324219 53.089844 20.328125 53.144531 20.332031 C 54.605469 20.453125 56.085938 20.773438 57.363281 21.449219 C 59.472656 22.558594 61.027344 24.625 61.027344 28.300781 C 61.027344 29.351562 60.800781 30.25 60.328125 31.046875 C 60.054688 31.507812 59.714844 31.90625 59.289062 32.265625 C 58.476562 32.949219 58.023438 33.984375 58.058594 35.0625 C 58.097656 36.144531 58.621094 37.140625 59.476562 37.765625 C 60.109375 38.226562 60.65625 38.863281 61.097656 39.660156 C 61.660156 40.679688 62.023438 41.941406 62.023438 42.878906 C 62.023438 45.828125 61.128906 47.898438 59.289062 49.210938 M 66.929688 36.238281 C 66.640625 35.71875 66.328125 35.226562 65.988281 34.765625 C 66.015625 34.726562 66.039062 34.6875 66.058594 34.648438 C 67.175781 32.761719 67.742188 30.625 67.742188 28.300781 C 67.742188 23.75 66.1875 19.933594 63.242188 17.265625 C 61.488281 15.679688 59.285156 14.554688 56.730469 13.933594 C 55.242188 13.570312 53.636719 13.378906 51.933594 13.363281 L 51.921875 13.363281 C 50.578125 10.066406 48.019531 8.8125 44.539062 9.949219 L 40.292969 11.339844 L 33.210938 13.65625 L 33.210938 13.730469 C 32.117188 14.300781 31.367188 15.46875 31.367188 16.820312 L 31.367188 54.515625 C 31.367188 56.421875 32.871094 57.972656 34.726562 57.972656 L 45.34375 57.972656 C 45.410156 57.972656 45.476562 57.96875 45.542969 57.964844 L 51.714844 57.964844 C 56.421875 57.964844 60.257812 56.933594 63.109375 54.898438 C 65.679688 53.066406 68.738281 49.496094 68.738281 42.878906 C 68.738281 40.734375 68.078125 38.316406 66.929688 36.238281 " fill-opacity="1" fill-rule="nonzero"/><path fill="#d1d1d1" d="M 45.34375 57.972656 L 34.726562 57.972656 C 39.882812 57.191406 44.632812 53.882812 47.328125 51.050781 L 51.714844 51.050781 C 53.066406 51.050781 54.292969 50.949219 55.386719 50.742188 C 52.476562 54.355469 49.847656 56.597656 46.441406 57.964844 L 45.542969 57.964844 C 45.476562 57.96875 45.410156 57.972656 45.34375 57.972656 M 57.363281 21.449219 C 56.085938 20.773438 54.605469 20.453125 53.144531 20.332031 C 53.191406 18.03125 52.773438 15.402344 51.933594 13.363281 C 53.636719 13.378906 55.242188 13.570312 56.730469 13.933594 C 57.355469 16.136719 57.792969 18.917969 57.363281 21.449219 " fill-opacity="1" fill-rule="nonzero"/><g fill="#292929" fill-opacity="1"><g transform="translate(91.579131, 48.558065)"><g><path d="M 18.6875 -34.921875 C 20.007812 -34.921875 21.445312 -34.800781 23 -34.5625 C 24.550781 -34.320312 26.019531 -33.875 27.40625 -33.21875 C 28.789062 -32.5625 29.929688 -31.59375 30.828125 -30.3125 C 31.722656 -29.03125 32.171875 -27.367188 32.171875 -25.328125 C 32.171875 -24.148438 31.882812 -22.941406 31.3125 -21.703125 C 30.75 -20.460938 29.957031 -19.550781 28.9375 -18.96875 C 30.84375 -18.195312 32.257812 -17.085938 33.1875 -15.640625 C 34.125 -14.203125 34.59375 -12.515625 34.59375 -10.578125 C 34.59375 -8.460938 34.160156 -6.71875 33.296875 -5.34375 C 32.441406 -3.96875 31.300781 -2.890625 29.875 -2.109375 C 28.445312 -1.328125 26.863281 -0.78125 25.125 -0.46875 C 23.394531 -0.15625 21.632812 0 19.84375 0 L 6.46875 0 C 5.59375 0 4.832031 -0.28125 4.1875 -0.84375 C 3.550781 -1.414062 3.234375 -2.101562 3.234375 -2.90625 L 3.234375 -32.015625 C 3.234375 -32.847656 3.550781 -33.539062 4.1875 -34.09375 C 4.832031 -34.644531 5.59375 -34.921875 6.46875 -34.921875 Z M 18.6875 -29.484375 L 9.59375 -29.484375 L 9.59375 -21 L 18.859375 -21 C 20.722656 -21 22.359375 -21.332031 23.765625 -22 C 25.171875 -22.675781 25.875 -23.785156 25.875 -25.328125 C 25.875 -26.523438 25.460938 -27.414062 24.640625 -28 C 23.816406 -28.59375 22.847656 -28.988281 21.734375 -29.1875 C 20.617188 -29.382812 19.601562 -29.484375 18.6875 -29.484375 Z M 21.4375 -15.5625 L 9.59375 -15.5625 L 9.59375 -5.421875 L 19.84375 -5.421875 C 21.15625 -5.421875 22.453125 -5.546875 23.734375 -5.796875 C 25.015625 -6.054688 26.066406 -6.5625 26.890625 -7.3125 C 27.710938 -8.0625 28.125 -9.148438 28.125 -10.578125 C 28.125 -12.253906 27.472656 -13.503906 26.171875 -14.328125 C 24.878906 -15.148438 23.300781 -15.5625 21.4375 -15.5625 Z M 21.4375 -15.5625 "/></g></g></g><g fill="#292929" fill-opacity="1"><g transform="translate(127.146664, 48.558065)"><g><path d="M 8.21875 -32.015625 C 8.21875 -31.097656 7.878906 -30.410156 7.203125 -29.953125 C 6.523438 -29.492188 5.804688 -29.265625 5.046875 -29.265625 C 4.242188 -29.265625 3.507812 -29.492188 2.84375 -29.953125 C 2.1875 -30.410156 1.859375 -31.097656 1.859375 -32.015625 L 1.859375 -32.71875 C 1.859375 -33.664062 2.1875 -34.359375 2.84375 -34.796875 C 3.507812 -35.242188 4.242188 -35.46875 5.046875 -35.46875 C 5.804688 -35.46875 6.523438 -35.242188 7.203125 -34.796875 C 7.878906 -34.359375 8.21875 -33.664062 8.21875 -32.71875 Z M 1.921875 -25.21875 C 1.921875 -26.09375 2.257812 -26.757812 2.9375 -27.21875 C 3.613281 -27.675781 4.316406 -27.90625 5.046875 -27.90625 C 5.804688 -27.90625 6.515625 -27.675781 7.171875 -27.21875 C 7.835938 -26.757812 8.171875 -26.109375 8.171875 -25.265625 L 8.171875 -2.6875 C 8.171875 -1.769531 7.835938 -1.09375 7.171875 -0.65625 C 6.515625 -0.21875 5.804688 0 5.046875 0 C 4.316406 0 3.613281 -0.21875 2.9375 -0.65625 C 2.257812 -1.09375 1.921875 -1.769531 1.921875 -2.6875 Z M 1.921875 -25.21875 "/></g></g></g><g fill="#292929" fill-opacity="1"><g transform="translate(136.134279, 48.558065)"><g><path d="M 25.59375 -27.90625 C 26.539062 -27.90625 27.304688 -27.59375 27.890625 -26.96875 C 28.484375 -26.34375 28.78125 -25.613281 28.78125 -24.78125 L 28.78125 -1.703125 C 28.78125 0.960938 28.15625 3.207031 26.90625 5.03125 C 25.664062 6.863281 24.003906 8.238281 21.921875 9.15625 C 19.835938 10.070312 17.519531 10.53125 14.96875 10.53125 C 12.84375 10.53125 10.921875 10.253906 9.203125 9.703125 C 7.484375 9.148438 5.878906 8.179688 4.390625 6.796875 C 3.648438 6.066406 3.296875 5.316406 3.328125 4.546875 C 3.367188 3.773438 3.664062 3.113281 4.21875 2.5625 C 4.769531 2.019531 5.4375 1.710938 6.21875 1.640625 C 7.007812 1.566406 7.769531 1.859375 8.5 2.515625 C 9.625 3.503906 10.671875 4.144531 11.640625 4.4375 C 12.609375 4.726562 13.71875 4.875 14.96875 4.875 C 16.28125 4.875 17.519531 4.644531 18.6875 4.1875 C 19.851562 3.738281 20.800781 3.019531 21.53125 2.03125 C 22.269531 1.039062 22.640625 -0.203125 22.640625 -1.703125 L 22.640625 -2.1875 C 21.398438 -1.28125 20.046875 -0.597656 18.578125 -0.140625 C 17.117188 0.316406 15.75 0.546875 14.46875 0.546875 C 11.84375 0.546875 9.53125 -0.0507812 7.53125 -1.25 C 5.539062 -2.457031 3.988281 -4.15625 2.875 -6.34375 C 1.757812 -8.539062 1.203125 -11.101562 1.203125 -14.03125 C 1.203125 -16.882812 1.769531 -19.390625 2.90625 -21.546875 C 4.039062 -23.703125 5.617188 -25.390625 7.640625 -26.609375 C 9.671875 -27.835938 12.019531 -28.453125 14.6875 -28.453125 C 15.925781 -28.453125 17.25 -28.265625 18.65625 -27.890625 C 20.070312 -27.523438 21.398438 -26.890625 22.640625 -25.984375 C 23.035156 -27.265625 24.019531 -27.90625 25.59375 -27.90625 Z M 14.640625 -4.984375 C 16.316406 -4.984375 17.910156 -5.347656 19.421875 -6.078125 C 20.941406 -6.816406 21.992188 -7.914062 22.578125 -9.375 L 22.578125 -18.53125 C 21.890625 -19.914062 20.84375 -20.988281 19.4375 -21.75 C 18.03125 -22.519531 16.59375 -22.90625 15.125 -22.90625 C 12.820312 -22.90625 10.96875 -22.066406 9.5625 -20.390625 C 8.15625 -18.710938 7.453125 -16.578125 7.453125 -13.984375 C 7.453125 -11.273438 8.109375 -9.097656 9.421875 -7.453125 C 10.742188 -5.804688 12.484375 -4.984375 14.640625 -4.984375 Z M 14.640625 -4.984375 "/></g></g></g><g fill="#292929" fill-opacity="1"><g transform="translate(167.920343, 48.558065)"><g><path d="M 18.6875 -34.921875 C 20.007812 -34.921875 21.445312 -34.800781 23 -34.5625 C 24.550781 -34.320312 26.019531 -33.875 27.40625 -33.21875 C 28.789062 -32.5625 29.929688 -31.59375 30.828125 -30.3125 C 31.722656 -29.03125 32.171875 -27.367188 32.171875 -25.328125 C 32.171875 -24.148438 31.882812 -22.941406 31.3125 -21.703125 C 30.75 -20.460938 29.957031 -19.550781 28.9375 -18.96875 C 30.84375 -18.195312 32.257812 -17.085938 33.1875 -15.640625 C 34.125 -14.203125 34.59375 -12.515625 34.59375 -10.578125 C 34.59375 -8.460938 34.160156 -6.71875 33.296875 -5.34375 C 32.441406 -3.96875 31.300781 -2.890625 29.875 -2.109375 C 28.445312 -1.328125 26.863281 -0.78125 25.125 -0.46875 C 23.394531 -0.15625 21.632812 0 19.84375 0 L 6.46875 0 C 5.59375 0 4.832031 -0.28125 4.1875 -0.84375 C 3.550781 -1.414062 3.234375 -2.101562 3.234375 -2.90625 L 3.234375 -32.015625 C 3.234375 -32.847656 3.550781 -33.539062 4.1875 -34.09375 C 4.832031 -34.644531 5.59375 -34.921875 6.46875 -34.921875 Z M 18.6875 -29.484375 L 9.59375 -29.484375 L 9.59375 -21 L 18.859375 -21 C 20.722656 -21 22.359375 -21.332031 23.765625 -22 C 25.171875 -22.675781 25.875 -23.785156 25.875 -25.328125 C 25.875 -26.523438 25.460938 -27.414062 24.640625 -28 C 23.816406 -28.59375 22.847656 -28.988281 21.734375 -29.1875 C 20.617188 -29.382812 19.601562 -29.484375 18.6875 -29.484375 Z M 21.4375 -15.5625 L 9.59375 -15.5625 L 9.59375 -5.421875 L 19.84375 -5.421875 C 21.15625 -5.421875 22.453125 -5.546875 23.734375 -5.796875 C 25.015625 -6.054688 26.066406 -6.5625 26.890625 -7.3125 C 27.710938 -8.0625 28.125 -9.148438 28.125 -10.578125 C 28.125 -12.253906 27.472656 -13.503906 26.171875 -14.328125 C 24.878906 -15.148438 23.300781 -15.5625 21.4375 -15.5625 Z M 21.4375 -15.5625 "/></g></g></g><g fill="#292929" fill-opacity="1"><g transform="translate(203.487877, 48.558065)"><g><path d="M 25.546875 -27.90625 C 26.492188 -27.90625 27.304688 -27.492188 27.984375 -26.671875 C 28.660156 -25.847656 28.796875 -24.882812 28.390625 -23.78125 L 12.390625 7.625 C 12.023438 8.3125 11.554688 8.851562 10.984375 9.25 C 10.421875 9.65625 9.828125 9.859375 9.203125 9.859375 C 8.585938 9.859375 8.015625 9.648438 7.484375 9.234375 C 6.953125 8.816406 6.582031 8.273438 6.375 7.609375 C 6.175781 6.953125 6.257812 6.257812 6.625 5.53125 L 10.796875 -2.6875 L 0 -23.5625 C -0.332031 -24.300781 -0.378906 -25 -0.140625 -25.65625 C 0.0976562 -26.3125 0.488281 -26.847656 1.03125 -27.265625 C 1.582031 -27.691406 2.1875 -27.90625 2.84375 -27.90625 C 3.4375 -27.90625 4.003906 -27.71875 4.546875 -27.34375 C 5.097656 -26.976562 5.5 -26.503906 5.75 -25.921875 L 14.203125 -9.421875 L 22.640625 -25.984375 C 22.890625 -26.566406 23.269531 -27.03125 23.78125 -27.375 C 24.300781 -27.726562 24.890625 -27.90625 25.546875 -27.90625 Z M 25.546875 -27.90625 "/></g></g></g><g fill="#292929" fill-opacity="1"><g transform="translate(232.040502, 48.558065)"><g><path d="M 15.078125 -5.203125 C 15.910156 -5.679688 16.664062 -5.847656 17.34375 -5.703125 C 18.019531 -5.554688 18.566406 -5.234375 18.984375 -4.734375 C 19.410156 -4.242188 19.625 -3.671875 19.625 -3.015625 C 19.625 -2.535156 19.476562 -2.054688 19.1875 -1.578125 C 18.894531 -1.109375 18.4375 -0.710938 17.8125 -0.390625 C 17.007812 0.0546875 16.28125 0.320312 15.625 0.40625 C 14.96875 0.5 14.195312 0.546875 13.3125 0.546875 C 10.9375 0.546875 9.109375 0.0546875 7.828125 -0.921875 C 6.554688 -1.910156 5.679688 -3.191406 5.203125 -4.765625 C 4.734375 -6.335938 4.5 -8 4.5 -9.75 L 4.5 -22.6875 L 2.40625 -22.6875 C 1.382812 -22.6875 0.625 -22.960938 0.125 -23.515625 C -0.363281 -24.066406 -0.609375 -24.648438 -0.609375 -25.265625 C -0.609375 -25.921875 -0.351562 -26.523438 0.15625 -27.078125 C 0.675781 -27.628906 1.425781 -27.90625 2.40625 -27.90625 L 4.5 -27.90625 L 4.5 -32.609375 C 4.5 -33.554688 4.804688 -34.269531 5.421875 -34.75 C 6.046875 -35.226562 6.757812 -35.46875 7.5625 -35.46875 C 8.332031 -35.46875 9.046875 -35.226562 9.703125 -34.75 C 10.359375 -34.269531 10.6875 -33.554688 10.6875 -32.609375 L 10.6875 -27.90625 L 14.96875 -27.90625 C 15.914062 -27.90625 16.644531 -27.628906 17.15625 -27.078125 C 17.664062 -26.523438 17.921875 -25.921875 17.921875 -25.265625 C 17.921875 -24.609375 17.664062 -24.015625 17.15625 -23.484375 C 16.644531 -22.953125 15.914062 -22.6875 14.96875 -22.6875 L 10.6875 -22.6875 L 10.6875 -9.75 C 10.6875 -8.945312 10.738281 -8.171875 10.84375 -7.421875 C 10.957031 -6.671875 11.207031 -6.050781 11.59375 -5.5625 C 11.976562 -5.070312 12.550781 -4.828125 13.3125 -4.828125 C 13.613281 -4.828125 13.9375 -4.867188 14.28125 -4.953125 C 14.625 -5.046875 14.890625 -5.128906 15.078125 -5.203125 Z M 15.078125 -5.203125 "/></g></g></g><g fill="#292929" fill-opacity="1"><g transform="translate(251.057233, 48.558065)"><g><path d="M 15.671875 -4.875 C 16.734375 -4.875 17.773438 -5.019531 18.796875 -5.3125 C 19.816406 -5.601562 20.769531 -6.097656 21.65625 -6.796875 C 22.488281 -7.566406 23.304688 -7.921875 24.109375 -7.859375 C 24.921875 -7.804688 25.585938 -7.515625 26.109375 -6.984375 C 26.640625 -6.453125 26.90625 -5.796875 26.90625 -5.015625 C 26.90625 -4.234375 26.523438 -3.472656 25.765625 -2.734375 C 24.484375 -1.492188 22.960938 -0.625 21.203125 -0.125 C 19.453125 0.363281 17.664062 0.585938 15.84375 0.546875 C 12.988281 0.546875 10.472656 -0.0351562 8.296875 -1.203125 C 6.128906 -2.367188 4.429688 -3.992188 3.203125 -6.078125 C 1.984375 -8.160156 1.375 -10.570312 1.375 -13.3125 C 1.375 -16.3125 1.957031 -18.941406 3.125 -21.203125 C 4.289062 -23.472656 5.941406 -25.25 8.078125 -26.53125 C 10.222656 -27.8125 12.753906 -28.453125 15.671875 -28.453125 C 18.597656 -28.453125 21.082031 -27.859375 23.125 -26.671875 C 25.175781 -25.484375 26.738281 -23.816406 27.8125 -21.671875 C 28.894531 -19.535156 29.4375 -17.046875 29.4375 -14.203125 C 29.4375 -13.285156 29.253906 -12.503906 28.890625 -11.859375 C 28.523438 -11.222656 27.554688 -10.90625 25.984375 -10.90625 L 7.734375 -10.90625 C 8.242188 -9.113281 9.207031 -7.660156 10.625 -6.546875 C 12.050781 -5.429688 13.734375 -4.875 15.671875 -4.875 Z M 15.734375 -23.015625 C 13.609375 -23.015625 11.832031 -22.347656 10.40625 -21.015625 C 8.988281 -19.679688 8.078125 -17.9375 7.671875 -15.78125 L 23.625 -15.78125 C 23.4375 -17.9375 22.722656 -19.679688 21.484375 -21.015625 C 20.242188 -22.347656 18.328125 -23.015625 15.734375 -23.015625 Z M 15.734375 -23.015625 "/></g></g></g><g fill="#292929" fill-opacity="1"><g transform="translate(282.898108, 48.558065)"><g><path d="M 0.71875 -6.515625 C 0.457031 -7.546875 0.691406 -8.367188 1.421875 -8.984375 C 2.148438 -9.609375 2.957031 -9.921875 3.84375 -9.921875 C 4.5 -9.921875 5.082031 -9.726562 5.59375 -9.34375 C 6.101562 -8.957031 6.484375 -8.382812 6.734375 -7.625 C 6.960938 -6.957031 7.441406 -6.414062 8.171875 -6 C 8.898438 -5.582031 9.75 -5.28125 10.71875 -5.09375 C 11.6875 -4.914062 12.660156 -4.828125 13.640625 -4.828125 C 15.617188 -4.828125 17.207031 -5.179688 18.40625 -5.890625 C 19.613281 -6.609375 20.21875 -7.515625 20.21875 -8.609375 C 20.21875 -9.367188 19.898438 -9.929688 19.265625 -10.296875 C 18.628906 -10.671875 17.789062 -10.929688 16.75 -11.078125 C 15.707031 -11.222656 14.597656 -11.332031 13.421875 -11.40625 C 11.890625 -11.550781 10.382812 -11.734375 8.90625 -11.953125 C 7.425781 -12.171875 6.082031 -12.546875 4.875 -13.078125 C 3.664062 -13.609375 2.695312 -14.390625 1.96875 -15.421875 C 1.238281 -16.460938 0.875 -17.878906 0.875 -19.671875 C 0.875 -21.429688 1.382812 -22.96875 2.40625 -24.28125 C 3.4375 -25.59375 4.878906 -26.613281 6.734375 -27.34375 C 8.597656 -28.082031 10.753906 -28.453125 13.203125 -28.453125 C 14.628906 -28.453125 16.164062 -28.3125 17.8125 -28.03125 C 19.457031 -27.757812 20.984375 -27.203125 22.390625 -26.359375 C 23.796875 -25.523438 24.828125 -24.226562 25.484375 -22.46875 C 25.742188 -21.738281 25.726562 -21.085938 25.4375 -20.515625 C 25.144531 -19.953125 24.710938 -19.523438 24.140625 -19.234375 C 23.578125 -18.941406 23.003906 -18.796875 22.421875 -18.796875 C 21.765625 -18.796875 21.222656 -18.921875 20.796875 -19.171875 C 20.378906 -19.429688 20.023438 -19.875 19.734375 -20.5 C 19.398438 -21.269531 18.835938 -21.835938 18.046875 -22.203125 C 17.265625 -22.566406 16.425781 -22.789062 15.53125 -22.875 C 14.644531 -22.96875 13.867188 -23.015625 13.203125 -23.015625 C 11.378906 -23.015625 9.910156 -22.703125 8.796875 -22.078125 C 7.679688 -21.460938 7.125 -20.644531 7.125 -19.625 C 7.125 -18.75 7.414062 -18.15625 8 -17.84375 C 8.582031 -17.53125 9.375 -17.347656 10.375 -17.296875 C 11.382812 -17.242188 12.515625 -17.140625 13.765625 -16.984375 C 15.296875 -16.804688 16.804688 -16.609375 18.296875 -16.390625 C 19.796875 -16.171875 21.164062 -15.796875 22.40625 -15.265625 C 23.65625 -14.734375 24.644531 -13.945312 25.375 -12.90625 C 26.101562 -11.863281 26.46875 -10.429688 26.46875 -8.609375 C 26.46875 -6.816406 25.925781 -5.222656 24.84375 -3.828125 C 23.769531 -2.441406 22.273438 -1.363281 20.359375 -0.59375 C 18.441406 0.164062 16.203125 0.546875 13.640625 0.546875 C 12.515625 0.546875 11.285156 0.460938 9.953125 0.296875 C 8.617188 0.140625 7.320312 -0.179688 6.0625 -0.671875 C 4.800781 -1.171875 3.691406 -1.882812 2.734375 -2.8125 C 1.785156 -3.75 1.113281 -4.984375 0.71875 -6.515625 Z M 0.71875 -6.515625 "/></g></g></g></svg>