<svg xmlns="http://www.w3.org/2000/svg" xmlns:xlink="http://www.w3.org/1999/xlink" width="40" zoomAndPan="magnify" viewBox="0 0 30 30.000001" height="40" preserveAspectRatio="xMidYMid meet" version="1.0"><defs><clipPath id="f8b1e88634"><path d="M 0.484375 0 L 29.515625 0 L 29.515625 29.03125 L 0.484375 29.03125 Z M 0.484375 0 " clip-rule="nonzero"/></clipPath></defs><g clip-path="url(#f8b1e88634)"><path fill="#ffffff" d="M 0.484375 0 L 29.515625 0 L 29.515625 29.03125 L 0.484375 29.03125 Z M 0.484375 0 " fill-opacity="1" fill-rule="nonzero"/><path fill="#ffffff" d="M 0.484375 0 L 29.515625 0 L 29.515625 29.03125 L 0.484375 29.03125 Z M 0.484375 0 " fill-opacity="1" fill-rule="nonzero"/><path fill="#a6a6a6" d="M 25.382812 29.035156 L 4.621094 29.035156 C 2.335938 29.035156 0.484375 27.183594 0.484375 24.898438 L 0.484375 4.136719 C 0.484375 1.851562 2.335938 0 4.621094 0 L 25.382812 0 C 27.664062 0 29.519531 1.851562 29.519531 4.136719 L 29.519531 24.898438 C 29.519531 27.183594 27.664062 29.035156 25.382812 29.035156 " fill-opacity="1" fill-rule="nonzero"/></g><path fill="#ffffff" d="M 19.078125 21.339844 C 18.628906 21.65625 18.054688 21.882812 17.355469 22.011719 C 16.871094 22.105469 16.332031 22.148438 15.734375 22.148438 L 13.796875 22.148438 C 14.417969 21.753906 14.941406 21.234375 15.359375 20.59375 C 16.175781 19.34375 16.589844 17.675781 16.589844 15.636719 C 16.589844 14.871094 16.4375 14.007812 16.1875 13.320312 C 15.984375 12.769531 15.726562 12.351562 15.421875 12.078125 C 15.632812 11.710938 15.808594 11.304688 15.945312 10.867188 C 16.03125 10.59375 16.101562 10.3125 16.15625 10.023438 C 16.242188 9.5625 16.289062 9.082031 16.292969 8.589844 C 16.316406 8.589844 16.339844 8.59375 16.363281 8.59375 C 17.011719 8.648438 17.664062 8.789062 18.226562 9.085938 C 19.160156 9.578125 19.84375 10.488281 19.84375 12.109375 C 19.84375 12.574219 19.742188 12.972656 19.535156 13.320312 C 19.414062 13.527344 19.265625 13.703125 19.078125 13.859375 C 18.71875 14.164062 18.519531 14.621094 18.535156 15.09375 C 18.550781 15.570312 18.78125 16.011719 19.160156 16.285156 C 19.4375 16.492188 19.679688 16.773438 19.875 17.125 C 20.125 17.574219 20.285156 18.128906 20.285156 18.542969 C 20.285156 19.84375 19.890625 20.757812 19.078125 21.339844 M 22.449219 15.613281 C 22.320312 15.382812 22.183594 15.167969 22.035156 14.960938 C 22.042969 14.945312 22.054688 14.929688 22.066406 14.910156 C 22.558594 14.078125 22.808594 13.136719 22.808594 12.109375 C 22.808594 10.101562 22.121094 8.417969 20.820312 7.242188 C 20.046875 6.539062 19.074219 6.046875 17.949219 5.769531 C 17.292969 5.609375 16.582031 5.527344 15.832031 5.519531 L 15.824219 5.519531 C 15.234375 4.0625 14.105469 3.511719 12.566406 4.011719 L 10.695312 4.625 L 7.570312 5.648438 L 7.570312 5.683594 C 7.085938 5.933594 6.757812 6.449219 6.757812 7.042969 L 6.757812 23.679688 C 6.757812 24.519531 7.417969 25.203125 8.238281 25.203125 L 12.921875 25.203125 C 12.953125 25.203125 12.980469 25.203125 13.011719 25.199219 L 15.734375 25.199219 C 17.8125 25.199219 19.503906 24.746094 20.761719 23.847656 C 21.894531 23.039062 23.246094 21.464844 23.246094 18.542969 C 23.246094 17.597656 22.957031 16.53125 22.449219 15.613281 " fill-opacity="1" fill-rule="nonzero"/><path fill="#d1d1d1" d="M 12.921875 25.203125 L 8.238281 25.203125 C 10.515625 24.859375 12.609375 23.398438 13.796875 22.148438 L 15.734375 22.148438 C 16.332031 22.148438 16.871094 22.105469 17.355469 22.011719 C 16.070312 23.609375 14.910156 24.597656 13.40625 25.199219 L 13.011719 25.199219 C 12.980469 25.203125 12.953125 25.203125 12.921875 25.203125 M 18.226562 9.085938 C 17.664062 8.789062 17.011719 8.648438 16.363281 8.59375 C 16.386719 7.578125 16.203125 6.417969 15.832031 5.519531 C 16.582031 5.527344 17.292969 5.609375 17.949219 5.769531 C 18.222656 6.742188 18.417969 7.972656 18.226562 9.085938 " fill-opacity="1" fill-rule="nonzero"/></svg>