<svg xmlns="http://www.w3.org/2000/svg" xmlns:xlink="http://www.w3.org/1999/xlink" width="134" zoomAndPan="magnify" viewBox="0 0 100.5 30.000001" height="40" preserveAspectRatio="xMidYMid meet" version="1.0"><defs><g/><clipPath id="266de04f1e"><path d="M 2.527344 2.503906 L 26.476562 2.503906 L 26.476562 26.453125 L 2.527344 26.453125 Z M 2.527344 2.503906 " clip-rule="nonzero"/></clipPath></defs><g clip-path="url(#266de04f1e)"><path fill="#2588de" d="M 23.125 26.523438 L 5.949219 26.523438 C 4.058594 26.523438 2.527344 24.992188 2.527344 23.101562 L 2.527344 5.925781 C 2.527344 4.035156 4.058594 2.503906 5.949219 2.503906 L 23.125 2.503906 C 25.015625 2.503906 26.546875 4.035156 26.546875 5.925781 L 26.546875 23.101562 C 26.546875 24.992188 25.015625 26.523438 23.125 26.523438 " fill-opacity="1" fill-rule="nonzero"/></g><path fill="#ffffff" d="M 17.910156 20.15625 C 17.539062 20.421875 17.0625 20.605469 16.484375 20.714844 C 16.085938 20.789062 15.636719 20.828125 15.144531 20.828125 L 13.542969 20.828125 C 14.054688 20.5 14.484375 20.070312 14.832031 19.542969 C 15.507812 18.507812 15.851562 17.125 15.851562 15.4375 C 15.851562 14.808594 15.726562 14.089844 15.515625 13.523438 C 15.351562 13.066406 15.136719 12.722656 14.882812 12.496094 C 15.058594 12.191406 15.203125 11.855469 15.316406 11.492188 C 15.390625 11.265625 15.445312 11.035156 15.492188 10.796875 C 15.5625 10.414062 15.601562 10.015625 15.605469 9.609375 C 15.625 9.609375 15.644531 9.613281 15.664062 9.613281 C 16.199219 9.65625 16.738281 9.773438 17.207031 10.019531 C 17.976562 10.425781 18.542969 11.179688 18.542969 12.523438 C 18.542969 12.90625 18.460938 13.234375 18.289062 13.523438 C 18.1875 13.691406 18.0625 13.839844 17.90625 13.96875 C 17.613281 14.21875 17.445312 14.597656 17.460938 14.992188 C 17.472656 15.386719 17.664062 15.75 17.976562 15.976562 C 18.207031 16.144531 18.40625 16.378906 18.570312 16.671875 C 18.773438 17.042969 18.90625 17.503906 18.90625 17.84375 C 18.90625 18.921875 18.582031 19.675781 17.910156 20.15625 M 20.699219 15.421875 L 20.699219 15.417969 C 20.59375 15.230469 20.480469 15.050781 20.355469 14.882812 C 20.363281 14.867188 20.371094 14.851562 20.378906 14.839844 C 20.789062 14.152344 20.996094 13.371094 20.996094 12.523438 C 20.996094 10.859375 20.425781 9.46875 19.351562 8.492188 C 18.710938 7.914062 17.90625 7.503906 16.976562 7.277344 C 16.433594 7.144531 15.84375 7.074219 15.222656 7.070312 L 15.21875 7.070312 C 14.726562 5.863281 13.792969 5.40625 12.523438 5.824219 L 10.972656 6.328125 L 8.386719 7.175781 L 8.386719 7.203125 C 7.988281 7.410156 7.714844 7.835938 7.714844 8.332031 L 7.714844 22.09375 C 7.714844 22.789062 8.265625 23.355469 8.941406 23.355469 L 12.816406 23.355469 C 12.84375 23.355469 12.867188 23.355469 12.890625 23.351562 L 15.144531 23.351562 C 16.863281 23.351562 18.261719 22.976562 19.304688 22.230469 C 20.242188 21.5625 21.359375 20.261719 21.359375 17.84375 C 21.359375 17.0625 21.117188 16.179688 20.699219 15.421875 " fill-opacity="1" fill-rule="nonzero"/><path fill="#d1d1d1" d="M 12.816406 23.355469 L 8.941406 23.355469 C 10.824219 23.070312 12.558594 21.863281 13.542969 20.828125 L 15.144531 20.828125 C 15.636719 20.828125 16.085938 20.789062 16.484375 20.714844 C 15.421875 22.035156 14.460938 22.851562 13.21875 23.351562 L 12.890625 23.351562 C 12.867188 23.355469 12.84375 23.355469 12.816406 23.355469 M 17.207031 10.019531 C 16.738281 9.773438 16.199219 9.65625 15.664062 9.613281 C 15.683594 8.773438 15.53125 7.8125 15.222656 7.070312 C 15.84375 7.074219 16.433594 7.144531 16.976562 7.277344 C 17.203125 8.082031 17.363281 9.097656 17.207031 10.019531 " fill-opacity="1" fill-rule="nonzero"/><g fill="#2588de" fill-opacity="1"><g transform="translate(26.628215, 20.70272)"><g><path d="M 6.078125 -11.359375 C 6.515625 -11.359375 6.984375 -11.320312 7.484375 -11.25 C 7.992188 -11.175781 8.472656 -11.03125 8.921875 -10.8125 C 9.367188 -10.59375 9.738281 -10.273438 10.03125 -9.859375 C 10.320312 -9.453125 10.46875 -8.914062 10.46875 -8.25 C 10.46875 -7.863281 10.375 -7.46875 10.1875 -7.0625 C 10.007812 -6.65625 9.753906 -6.359375 9.421875 -6.171875 C 10.035156 -5.921875 10.492188 -5.5625 10.796875 -5.09375 C 11.109375 -4.625 11.265625 -4.070312 11.265625 -3.4375 C 11.265625 -2.75 11.125 -2.179688 10.84375 -1.734375 C 10.5625 -1.296875 10.1875 -0.945312 9.71875 -0.6875 C 9.257812 -0.425781 8.742188 -0.242188 8.171875 -0.140625 C 7.609375 -0.046875 7.035156 0 6.453125 0 L 2.109375 0 C 1.816406 0 1.566406 -0.0859375 1.359375 -0.265625 C 1.148438 -0.453125 1.046875 -0.679688 1.046875 -0.953125 L 1.046875 -10.421875 C 1.046875 -10.691406 1.148438 -10.914062 1.359375 -11.09375 C 1.566406 -11.269531 1.816406 -11.359375 2.109375 -11.359375 Z M 6.078125 -9.59375 L 3.125 -9.59375 L 3.125 -6.828125 L 6.140625 -6.828125 C 6.742188 -6.828125 7.273438 -6.9375 7.734375 -7.15625 C 8.191406 -7.382812 8.421875 -7.75 8.421875 -8.25 C 8.421875 -8.632812 8.285156 -8.921875 8.015625 -9.109375 C 7.753906 -9.304688 7.441406 -9.4375 7.078125 -9.5 C 6.710938 -9.5625 6.378906 -9.59375 6.078125 -9.59375 Z M 6.984375 -5.0625 L 3.125 -5.0625 L 3.125 -1.765625 L 6.453125 -1.765625 C 6.890625 -1.765625 7.3125 -1.804688 7.71875 -1.890625 C 8.132812 -1.972656 8.476562 -2.132812 8.75 -2.375 C 9.019531 -2.625 9.15625 -2.976562 9.15625 -3.4375 C 9.15625 -3.988281 8.941406 -4.394531 8.515625 -4.65625 C 8.097656 -4.925781 7.585938 -5.0625 6.984375 -5.0625 Z M 6.984375 -5.0625 "/></g></g></g><g fill="#2588de" fill-opacity="1"><g transform="translate(38.210318, 20.70272)"><g><path d="M 2.671875 -10.421875 C 2.671875 -10.117188 2.5625 -9.894531 2.34375 -9.75 C 2.125 -9.601562 1.890625 -9.53125 1.640625 -9.53125 C 1.378906 -9.53125 1.140625 -9.601562 0.921875 -9.75 C 0.710938 -9.894531 0.609375 -10.117188 0.609375 -10.421875 L 0.609375 -10.65625 C 0.609375 -10.957031 0.710938 -11.179688 0.921875 -11.328125 C 1.140625 -11.472656 1.378906 -11.546875 1.640625 -11.546875 C 1.890625 -11.546875 2.125 -11.472656 2.34375 -11.328125 C 2.5625 -11.179688 2.671875 -10.957031 2.671875 -10.65625 Z M 0.625 -8.203125 C 0.625 -8.492188 0.734375 -8.710938 0.953125 -8.859375 C 1.171875 -9.003906 1.398438 -9.078125 1.640625 -9.078125 C 1.890625 -9.078125 2.117188 -9.003906 2.328125 -8.859375 C 2.546875 -8.710938 2.65625 -8.5 2.65625 -8.21875 L 2.65625 -0.875 C 2.65625 -0.570312 2.546875 -0.347656 2.328125 -0.203125 C 2.117188 -0.0664062 1.890625 0 1.640625 0 C 1.398438 0 1.171875 -0.0664062 0.953125 -0.203125 C 0.734375 -0.347656 0.625 -0.570312 0.625 -0.875 Z M 0.625 -8.203125 "/></g></g></g><g fill="#2588de" fill-opacity="1"><g transform="translate(41.137019, 20.70272)"><g><path d="M 8.328125 -9.078125 C 8.640625 -9.078125 8.890625 -8.972656 9.078125 -8.765625 C 9.273438 -8.566406 9.375 -8.332031 9.375 -8.0625 L 9.375 -0.546875 C 9.375 0.316406 9.171875 1.046875 8.765625 1.640625 C 8.359375 2.234375 7.816406 2.675781 7.140625 2.96875 C 6.460938 3.269531 5.707031 3.421875 4.875 3.421875 C 4.1875 3.421875 3.5625 3.332031 3 3.15625 C 2.4375 2.976562 1.910156 2.664062 1.421875 2.21875 C 1.191406 1.976562 1.082031 1.734375 1.09375 1.484375 C 1.101562 1.234375 1.195312 1.019531 1.375 0.84375 C 1.550781 0.664062 1.765625 0.5625 2.015625 0.53125 C 2.273438 0.507812 2.523438 0.609375 2.765625 0.828125 C 3.128906 1.140625 3.46875 1.34375 3.78125 1.4375 C 4.101562 1.539062 4.46875 1.59375 4.875 1.59375 C 5.300781 1.59375 5.703125 1.515625 6.078125 1.359375 C 6.460938 1.210938 6.773438 0.976562 7.015625 0.65625 C 7.253906 0.332031 7.375 -0.0664062 7.375 -0.546875 L 7.375 -0.71875 C 6.96875 -0.414062 6.523438 -0.191406 6.046875 -0.046875 C 5.566406 0.0976562 5.117188 0.171875 4.703125 0.171875 C 3.847656 0.171875 3.097656 -0.0195312 2.453125 -0.40625 C 1.804688 -0.800781 1.300781 -1.351562 0.9375 -2.0625 C 0.570312 -2.78125 0.390625 -3.613281 0.390625 -4.5625 C 0.390625 -5.488281 0.570312 -6.300781 0.9375 -7 C 1.3125 -7.707031 1.828125 -8.257812 2.484375 -8.65625 C 3.148438 -9.0625 3.914062 -9.265625 4.78125 -9.265625 C 5.1875 -9.265625 5.617188 -9.203125 6.078125 -9.078125 C 6.535156 -8.960938 6.96875 -8.753906 7.375 -8.453125 C 7.5 -8.867188 7.816406 -9.078125 8.328125 -9.078125 Z M 4.765625 -1.625 C 5.304688 -1.625 5.820312 -1.742188 6.3125 -1.984375 C 6.8125 -2.222656 7.160156 -2.578125 7.359375 -3.046875 L 7.359375 -6.03125 C 7.128906 -6.476562 6.785156 -6.828125 6.328125 -7.078125 C 5.867188 -7.328125 5.398438 -7.453125 4.921875 -7.453125 C 4.171875 -7.453125 3.566406 -7.175781 3.109375 -6.625 C 2.648438 -6.082031 2.421875 -5.390625 2.421875 -4.546875 C 2.421875 -3.671875 2.632812 -2.960938 3.0625 -2.421875 C 3.5 -1.890625 4.066406 -1.625 4.765625 -1.625 Z M 4.765625 -1.625 "/></g></g></g><g fill="#2588de" fill-opacity="1"><g transform="translate(51.487732, 20.70272)"><g><path d="M 6.078125 -11.359375 C 6.515625 -11.359375 6.984375 -11.320312 7.484375 -11.25 C 7.992188 -11.175781 8.472656 -11.03125 8.921875 -10.8125 C 9.367188 -10.59375 9.738281 -10.273438 10.03125 -9.859375 C 10.320312 -9.453125 10.46875 -8.914062 10.46875 -8.25 C 10.46875 -7.863281 10.375 -7.46875 10.1875 -7.0625 C 10.007812 -6.65625 9.753906 -6.359375 9.421875 -6.171875 C 10.035156 -5.921875 10.492188 -5.5625 10.796875 -5.09375 C 11.109375 -4.625 11.265625 -4.070312 11.265625 -3.4375 C 11.265625 -2.75 11.125 -2.179688 10.84375 -1.734375 C 10.5625 -1.296875 10.1875 -0.945312 9.71875 -0.6875 C 9.257812 -0.425781 8.742188 -0.242188 8.171875 -0.140625 C 7.609375 -0.046875 7.035156 0 6.453125 0 L 2.109375 0 C 1.816406 0 1.566406 -0.0859375 1.359375 -0.265625 C 1.148438 -0.453125 1.046875 -0.679688 1.046875 -0.953125 L 1.046875 -10.421875 C 1.046875 -10.691406 1.148438 -10.914062 1.359375 -11.09375 C 1.566406 -11.269531 1.816406 -11.359375 2.109375 -11.359375 Z M 6.078125 -9.59375 L 3.125 -9.59375 L 3.125 -6.828125 L 6.140625 -6.828125 C 6.742188 -6.828125 7.273438 -6.9375 7.734375 -7.15625 C 8.191406 -7.382812 8.421875 -7.75 8.421875 -8.25 C 8.421875 -8.632812 8.285156 -8.921875 8.015625 -9.109375 C 7.753906 -9.304688 7.441406 -9.4375 7.078125 -9.5 C 6.710938 -9.5625 6.378906 -9.59375 6.078125 -9.59375 Z M 6.984375 -5.0625 L 3.125 -5.0625 L 3.125 -1.765625 L 6.453125 -1.765625 C 6.890625 -1.765625 7.3125 -1.804688 7.71875 -1.890625 C 8.132812 -1.972656 8.476562 -2.132812 8.75 -2.375 C 9.019531 -2.625 9.15625 -2.976562 9.15625 -3.4375 C 9.15625 -3.988281 8.941406 -4.394531 8.515625 -4.65625 C 8.097656 -4.925781 7.585938 -5.0625 6.984375 -5.0625 Z M 6.984375 -5.0625 "/></g></g></g><g fill="#2588de" fill-opacity="1"><g transform="translate(63.069836, 20.70272)"><g><path d="M 8.3125 -9.078125 C 8.625 -9.078125 8.890625 -8.941406 9.109375 -8.671875 C 9.328125 -8.410156 9.375 -8.101562 9.25 -7.75 L 4.03125 2.484375 C 3.914062 2.703125 3.765625 2.878906 3.578125 3.015625 C 3.390625 3.148438 3.195312 3.21875 3 3.21875 C 2.789062 3.21875 2.597656 3.144531 2.421875 3 C 2.253906 2.863281 2.140625 2.6875 2.078125 2.46875 C 2.015625 2.257812 2.039062 2.035156 2.15625 1.796875 L 3.515625 -0.875 L 0 -7.671875 C -0.101562 -7.910156 -0.113281 -8.132812 -0.03125 -8.34375 C 0.0390625 -8.5625 0.164062 -8.738281 0.34375 -8.875 C 0.519531 -9.007812 0.710938 -9.078125 0.921875 -9.078125 C 1.117188 -9.078125 1.304688 -9.015625 1.484375 -8.890625 C 1.660156 -8.773438 1.789062 -8.625 1.875 -8.4375 L 4.625 -3.0625 L 7.375 -8.453125 C 7.457031 -8.648438 7.582031 -8.800781 7.75 -8.90625 C 7.914062 -9.019531 8.101562 -9.078125 8.3125 -9.078125 Z M 8.3125 -9.078125 "/></g></g></g><g fill="#2588de" fill-opacity="1"><g transform="translate(72.367629, 20.70272)"><g><path d="M 4.90625 -1.6875 C 5.175781 -1.84375 5.421875 -1.894531 5.640625 -1.84375 C 5.867188 -1.800781 6.050781 -1.695312 6.1875 -1.53125 C 6.320312 -1.375 6.390625 -1.191406 6.390625 -0.984375 C 6.390625 -0.828125 6.34375 -0.671875 6.25 -0.515625 C 6.15625 -0.359375 6.003906 -0.226562 5.796875 -0.125 C 5.535156 0.0195312 5.296875 0.101562 5.078125 0.125 C 4.867188 0.15625 4.625 0.171875 4.34375 0.171875 C 3.5625 0.171875 2.960938 0.015625 2.546875 -0.296875 C 2.128906 -0.617188 1.84375 -1.035156 1.6875 -1.546875 C 1.539062 -2.054688 1.46875 -2.597656 1.46875 -3.171875 L 1.46875 -7.390625 L 0.78125 -7.390625 C 0.445312 -7.390625 0.195312 -7.476562 0.03125 -7.65625 C -0.125 -7.832031 -0.203125 -8.019531 -0.203125 -8.21875 C -0.203125 -8.4375 -0.117188 -8.632812 0.046875 -8.8125 C 0.210938 -8.988281 0.457031 -9.078125 0.78125 -9.078125 L 1.46875 -9.078125 L 1.46875 -10.609375 C 1.46875 -10.921875 1.566406 -11.15625 1.765625 -11.3125 C 1.960938 -11.46875 2.195312 -11.546875 2.46875 -11.546875 C 2.71875 -11.546875 2.945312 -11.46875 3.15625 -11.3125 C 3.375 -11.15625 3.484375 -10.921875 3.484375 -10.609375 L 3.484375 -9.078125 L 4.875 -9.078125 C 5.175781 -9.078125 5.410156 -8.988281 5.578125 -8.8125 C 5.742188 -8.632812 5.828125 -8.4375 5.828125 -8.21875 C 5.828125 -8.007812 5.742188 -7.816406 5.578125 -7.640625 C 5.410156 -7.472656 5.175781 -7.390625 4.875 -7.390625 L 3.484375 -7.390625 L 3.484375 -3.171875 C 3.484375 -2.910156 3.5 -2.65625 3.53125 -2.40625 C 3.570312 -2.164062 3.65625 -1.960938 3.78125 -1.796875 C 3.90625 -1.640625 4.09375 -1.5625 4.34375 -1.5625 C 4.4375 -1.5625 4.535156 -1.578125 4.640625 -1.609375 C 4.753906 -1.640625 4.84375 -1.664062 4.90625 -1.6875 Z M 4.90625 -1.6875 "/></g></g></g><g fill="#2588de" fill-opacity="1"><g transform="translate(78.560184, 20.70272)"><g><path d="M 5.109375 -1.59375 C 5.453125 -1.59375 5.789062 -1.640625 6.125 -1.734375 C 6.457031 -1.828125 6.765625 -1.988281 7.046875 -2.21875 C 7.316406 -2.46875 7.582031 -2.582031 7.84375 -2.5625 C 8.113281 -2.539062 8.332031 -2.441406 8.5 -2.265625 C 8.675781 -2.097656 8.765625 -1.882812 8.765625 -1.625 C 8.765625 -1.375 8.640625 -1.128906 8.390625 -0.890625 C 7.972656 -0.484375 7.476562 -0.195312 6.90625 -0.03125 C 6.332031 0.125 5.75 0.191406 5.15625 0.171875 C 4.226562 0.171875 3.410156 -0.015625 2.703125 -0.390625 C 1.992188 -0.773438 1.441406 -1.304688 1.046875 -1.984375 C 0.648438 -2.660156 0.453125 -3.445312 0.453125 -4.34375 C 0.453125 -5.3125 0.640625 -6.164062 1.015625 -6.90625 C 1.398438 -7.644531 1.9375 -8.222656 2.625 -8.640625 C 3.320312 -9.054688 4.148438 -9.265625 5.109375 -9.265625 C 6.054688 -9.265625 6.863281 -9.066406 7.53125 -8.671875 C 8.195312 -8.285156 8.703125 -7.742188 9.046875 -7.046875 C 9.398438 -6.359375 9.578125 -5.550781 9.578125 -4.625 C 9.578125 -4.320312 9.515625 -4.066406 9.390625 -3.859375 C 9.273438 -3.648438 8.960938 -3.546875 8.453125 -3.546875 L 2.515625 -3.546875 C 2.679688 -2.960938 2.992188 -2.488281 3.453125 -2.125 C 3.921875 -1.769531 4.472656 -1.59375 5.109375 -1.59375 Z M 5.125 -7.5 C 4.4375 -7.5 3.859375 -7.28125 3.390625 -6.84375 C 2.921875 -6.40625 2.625 -5.835938 2.5 -5.140625 L 7.6875 -5.140625 C 7.625 -5.835938 7.390625 -6.40625 6.984375 -6.84375 C 6.585938 -7.28125 5.96875 -7.5 5.125 -7.5 Z M 5.125 -7.5 "/></g></g></g><g fill="#2588de" fill-opacity="1"><g transform="translate(88.928746, 20.70272)"><g><path d="M 0.234375 -2.125 C 0.148438 -2.457031 0.226562 -2.722656 0.46875 -2.921875 C 0.707031 -3.128906 0.96875 -3.234375 1.25 -3.234375 C 1.457031 -3.234375 1.644531 -3.171875 1.8125 -3.046875 C 1.976562 -2.921875 2.101562 -2.734375 2.1875 -2.484375 C 2.257812 -2.265625 2.414062 -2.085938 2.65625 -1.953125 C 2.894531 -1.816406 3.171875 -1.71875 3.484375 -1.65625 C 3.804688 -1.59375 4.125 -1.5625 4.4375 -1.5625 C 5.082031 -1.5625 5.597656 -1.675781 5.984375 -1.90625 C 6.378906 -2.144531 6.578125 -2.441406 6.578125 -2.796875 C 6.578125 -3.046875 6.472656 -3.226562 6.265625 -3.34375 C 6.054688 -3.46875 5.78125 -3.550781 5.4375 -3.59375 C 5.101562 -3.644531 4.75 -3.6875 4.375 -3.71875 C 3.875 -3.757812 3.378906 -3.816406 2.890625 -3.890625 C 2.410156 -3.960938 1.972656 -4.082031 1.578125 -4.25 C 1.191406 -4.425781 0.878906 -4.679688 0.640625 -5.015625 C 0.398438 -5.359375 0.28125 -5.820312 0.28125 -6.40625 C 0.28125 -6.976562 0.445312 -7.476562 0.78125 -7.90625 C 1.113281 -8.332031 1.582031 -8.664062 2.1875 -8.90625 C 2.800781 -9.144531 3.503906 -9.265625 4.296875 -9.265625 C 4.765625 -9.265625 5.265625 -9.21875 5.796875 -9.125 C 6.335938 -9.039062 6.832031 -8.859375 7.28125 -8.578125 C 7.738281 -8.304688 8.078125 -7.882812 8.296875 -7.3125 C 8.378906 -7.070312 8.375 -6.859375 8.28125 -6.671875 C 8.1875 -6.492188 8.046875 -6.359375 7.859375 -6.265625 C 7.671875 -6.171875 7.484375 -6.125 7.296875 -6.125 C 7.085938 -6.125 6.910156 -6.164062 6.765625 -6.25 C 6.628906 -6.332031 6.515625 -6.472656 6.421875 -6.671875 C 6.316406 -6.921875 6.132812 -7.101562 5.875 -7.21875 C 5.625 -7.34375 5.351562 -7.421875 5.0625 -7.453125 C 4.769531 -7.484375 4.515625 -7.5 4.296875 -7.5 C 3.703125 -7.5 3.222656 -7.394531 2.859375 -7.1875 C 2.492188 -6.988281 2.3125 -6.722656 2.3125 -6.390625 C 2.3125 -6.097656 2.40625 -5.898438 2.59375 -5.796875 C 2.789062 -5.703125 3.050781 -5.644531 3.375 -5.625 C 3.707031 -5.613281 4.078125 -5.582031 4.484375 -5.53125 C 4.984375 -5.46875 5.472656 -5.398438 5.953125 -5.328125 C 6.441406 -5.265625 6.890625 -5.144531 7.296875 -4.96875 C 7.703125 -4.789062 8.023438 -4.53125 8.265625 -4.1875 C 8.503906 -3.851562 8.625 -3.390625 8.625 -2.796875 C 8.625 -2.210938 8.445312 -1.695312 8.09375 -1.25 C 7.738281 -0.800781 7.25 -0.453125 6.625 -0.203125 C 6 0.046875 5.269531 0.171875 4.4375 0.171875 C 4.070312 0.171875 3.671875 0.144531 3.234375 0.09375 C 2.804688 0.0390625 2.382812 -0.0625 1.96875 -0.21875 C 1.5625 -0.382812 1.203125 -0.617188 0.890625 -0.921875 C 0.578125 -1.222656 0.359375 -1.625 0.234375 -2.125 Z M 0.234375 -2.125 "/></g></g></g></svg>