<svg xmlns="http://www.w3.org/2000/svg" xmlns:xlink="http://www.w3.org/1999/xlink" width="500" zoomAndPan="magnify" viewBox="0 0 375 75.749997" height="101" preserveAspectRatio="xMidYMid meet" version="1.0"><defs><g/><clipPath id="587de377b1"><path d="M 12.277344 1.199219 L 85.535156 1.199219 L 85.535156 74.457031 L 12.277344 74.457031 Z M 12.277344 1.199219 " clip-rule="nonzero"/></clipPath></defs><g clip-path="url(#587de377b1)"><path fill="#a6a6a6" d="M 74.960938 74.296875 L 22.691406 74.296875 C 16.941406 74.296875 12.28125 69.632812 12.28125 63.882812 L 12.28125 11.613281 C 12.28125 5.863281 16.941406 1.199219 22.691406 1.199219 L 74.960938 1.199219 C 80.710938 1.199219 85.375 5.863281 85.375 11.613281 L 85.375 63.882812 C 85.375 69.632812 80.710938 74.296875 74.960938 74.296875 " fill-opacity="1" fill-rule="nonzero"/></g><path fill="#ffffff" d="M 59.085938 54.921875 C 57.964844 55.722656 56.511719 56.292969 54.75 56.621094 C 53.535156 56.847656 52.175781 56.964844 50.671875 56.964844 L 45.796875 56.964844 C 47.359375 55.972656 48.671875 54.660156 49.726562 53.050781 C 51.78125 49.90625 52.824219 45.703125 52.824219 40.566406 C 52.824219 38.644531 52.445312 36.464844 51.8125 34.738281 C 51.300781 33.351562 50.648438 32.296875 49.886719 31.605469 C 50.414062 30.679688 50.855469 29.660156 51.203125 28.554688 C 51.417969 27.867188 51.597656 27.160156 51.730469 26.433594 C 51.953125 25.273438 52.070312 24.0625 52.082031 22.824219 C 52.140625 22.828125 52.199219 22.832031 52.257812 22.835938 C 53.882812 22.96875 55.53125 23.328125 56.949219 24.078125 C 59.292969 25.3125 61.019531 27.605469 61.019531 31.6875 C 61.019531 32.855469 60.765625 33.855469 60.242188 34.738281 C 59.9375 35.25 59.558594 35.695312 59.085938 36.09375 C 58.183594 36.855469 57.679688 38.003906 57.722656 39.203125 C 57.761719 40.402344 58.347656 41.511719 59.296875 42.203125 C 60 42.714844 60.605469 43.425781 61.097656 44.3125 C 61.722656 45.445312 62.128906 46.847656 62.128906 47.882812 C 62.128906 51.160156 61.132812 53.460938 59.085938 54.921875 M 67.578125 40.507812 C 67.257812 39.929688 66.910156 39.382812 66.53125 38.871094 C 66.558594 38.828125 66.585938 38.785156 66.609375 38.738281 C 67.851562 36.644531 68.480469 34.273438 68.480469 31.6875 C 68.480469 26.632812 66.75 22.394531 63.480469 19.429688 C 61.53125 17.664062 59.082031 16.417969 56.246094 15.726562 C 54.59375 15.324219 52.808594 15.109375 50.917969 15.09375 L 50.902344 15.09375 C 49.410156 11.429688 46.566406 10.035156 42.699219 11.300781 L 37.980469 12.84375 L 30.117188 15.417969 L 30.117188 15.503906 C 28.902344 16.136719 28.066406 17.433594 28.066406 18.933594 L 28.066406 60.8125 C 28.066406 62.933594 29.738281 64.652344 31.796875 64.652344 L 43.59375 64.652344 C 43.667969 64.652344 43.742188 64.652344 43.816406 64.644531 L 50.671875 64.644531 C 55.902344 64.644531 60.164062 63.5 63.332031 61.238281 C 66.1875 59.203125 69.585938 55.238281 69.585938 47.882812 C 69.585938 45.503906 68.855469 42.816406 67.578125 40.507812 " fill-opacity="1" fill-rule="nonzero"/><path fill="#d1d1d1" d="M 43.59375 64.652344 L 31.796875 64.652344 C 37.53125 63.789062 42.804688 60.109375 45.796875 56.964844 L 50.671875 56.964844 C 52.175781 56.964844 53.535156 56.847656 54.75 56.621094 C 51.519531 60.636719 48.597656 63.128906 44.816406 64.644531 L 43.816406 64.644531 C 43.742188 64.652344 43.667969 64.652344 43.59375 64.652344 M 56.949219 24.078125 C 55.53125 23.328125 53.882812 22.96875 52.257812 22.835938 C 52.3125 20.277344 51.851562 17.359375 50.917969 15.09375 C 52.808594 15.109375 54.59375 15.324219 56.246094 15.726562 C 56.9375 18.171875 57.425781 21.265625 56.949219 24.078125 " fill-opacity="1" fill-rule="nonzero"/><g fill="#ffffff" fill-opacity="1"><g transform="translate(90.39817, 59.283109)"><g><path d="M 23.390625 -43.6875 C 25.035156 -43.6875 26.828125 -43.535156 28.765625 -43.234375 C 30.710938 -42.941406 32.550781 -42.382812 34.28125 -41.5625 C 36.019531 -40.738281 37.445312 -39.523438 38.5625 -37.921875 C 39.6875 -36.328125 40.25 -34.25 40.25 -31.6875 C 40.25 -30.21875 39.894531 -28.707031 39.1875 -27.15625 C 38.476562 -25.601562 37.484375 -24.460938 36.203125 -23.734375 C 38.585938 -22.765625 40.359375 -21.378906 41.515625 -19.578125 C 42.679688 -17.773438 43.265625 -15.660156 43.265625 -13.234375 C 43.265625 -10.585938 42.726562 -8.40625 41.65625 -6.6875 C 40.582031 -4.96875 39.15625 -3.617188 37.375 -2.640625 C 35.59375 -1.660156 33.613281 -0.972656 31.4375 -0.578125 C 29.269531 -0.191406 27.066406 0 24.828125 0 L 8.09375 0 C 7 0 6.050781 -0.351562 5.25 -1.0625 C 4.445312 -1.769531 4.046875 -2.628906 4.046875 -3.640625 L 4.046875 -40.046875 C 4.046875 -41.097656 4.445312 -41.96875 5.25 -42.65625 C 6.050781 -43.34375 7 -43.6875 8.09375 -43.6875 Z M 23.390625 -36.890625 L 12 -36.890625 L 12 -26.265625 L 23.59375 -26.265625 C 25.925781 -26.265625 27.972656 -26.6875 29.734375 -27.53125 C 31.492188 -28.375 32.375 -29.757812 32.375 -31.6875 C 32.375 -33.195312 31.859375 -34.316406 30.828125 -35.046875 C 29.796875 -35.773438 28.582031 -36.265625 27.1875 -36.515625 C 25.789062 -36.765625 24.523438 -36.890625 23.390625 -36.890625 Z M 26.8125 -19.46875 L 12 -19.46875 L 12 -6.796875 L 24.828125 -6.796875 C 26.472656 -6.796875 28.09375 -6.953125 29.6875 -7.265625 C 31.289062 -7.585938 32.609375 -8.21875 33.640625 -9.15625 C 34.671875 -10.09375 35.1875 -11.453125 35.1875 -13.234375 C 35.1875 -15.335938 34.375 -16.898438 32.75 -17.921875 C 31.125 -18.953125 29.144531 -19.46875 26.8125 -19.46875 Z M 26.8125 -19.46875 "/></g></g></g><g fill="#ffffff" fill-opacity="1"><g transform="translate(134.908634, 59.283109)"><g><path d="M 10.28125 -40.046875 C 10.28125 -38.898438 9.859375 -38.039062 9.015625 -37.46875 C 8.171875 -36.90625 7.269531 -36.625 6.3125 -36.625 C 5.300781 -36.625 4.382812 -36.90625 3.5625 -37.46875 C 2.738281 -38.039062 2.328125 -38.898438 2.328125 -40.046875 L 2.328125 -40.9375 C 2.328125 -42.125 2.738281 -42.992188 3.5625 -43.546875 C 4.382812 -44.097656 5.300781 -44.375 6.3125 -44.375 C 7.269531 -44.375 8.171875 -44.097656 9.015625 -43.546875 C 9.859375 -42.992188 10.28125 -42.125 10.28125 -40.9375 Z M 2.40625 -31.546875 C 2.40625 -32.640625 2.828125 -33.472656 3.671875 -34.046875 C 4.515625 -34.617188 5.394531 -34.90625 6.3125 -34.90625 C 7.269531 -34.90625 8.160156 -34.617188 8.984375 -34.046875 C 9.804688 -33.472656 10.21875 -32.660156 10.21875 -31.609375 L 10.21875 -3.359375 C 10.21875 -2.210938 9.804688 -1.363281 8.984375 -0.8125 C 8.160156 -0.269531 7.269531 0 6.3125 0 C 5.394531 0 4.515625 -0.269531 3.671875 -0.8125 C 2.828125 -1.363281 2.40625 -2.210938 2.40625 -3.359375 Z M 2.40625 -31.546875 "/></g></g></g><g fill="#ffffff" fill-opacity="1"><g transform="translate(146.156055, 59.283109)"><g><path d="M 32.03125 -34.90625 C 33.21875 -34.90625 34.175781 -34.515625 34.90625 -33.734375 C 35.632812 -32.960938 36 -32.050781 36 -31 L 36 -2.125 C 36 1.207031 35.222656 4.015625 33.671875 6.296875 C 32.117188 8.585938 30.035156 10.304688 27.421875 11.453125 C 24.816406 12.597656 21.914062 13.171875 18.71875 13.171875 C 16.070312 13.171875 13.671875 12.828125 11.515625 12.140625 C 9.367188 11.453125 7.359375 10.238281 5.484375 8.5 C 4.566406 7.582031 4.128906 6.644531 4.171875 5.6875 C 4.222656 4.726562 4.59375 3.90625 5.28125 3.21875 C 5.96875 2.53125 6.800781 2.140625 7.78125 2.046875 C 8.769531 1.960938 9.71875 2.332031 10.625 3.15625 C 12.039062 4.382812 13.351562 5.179688 14.5625 5.546875 C 15.78125 5.921875 17.164062 6.109375 18.71875 6.109375 C 20.363281 6.109375 21.914062 5.820312 23.375 5.25 C 24.84375 4.675781 26.035156 3.769531 26.953125 2.53125 C 27.867188 1.300781 28.328125 -0.25 28.328125 -2.125 L 28.328125 -2.75 C 26.765625 -1.601562 25.066406 -0.742188 23.234375 -0.171875 C 21.410156 0.398438 19.703125 0.6875 18.109375 0.6875 C 14.816406 0.6875 11.921875 -0.0664062 9.421875 -1.578125 C 6.929688 -3.085938 4.988281 -5.210938 3.59375 -7.953125 C 2.207031 -10.691406 1.515625 -13.894531 1.515625 -17.5625 C 1.515625 -21.125 2.222656 -24.253906 3.640625 -26.953125 C 5.054688 -29.648438 7.03125 -31.765625 9.5625 -33.296875 C 12.101562 -34.828125 15.039062 -35.59375 18.375 -35.59375 C 19.925781 -35.59375 21.582031 -35.363281 23.34375 -34.90625 C 25.101562 -34.445312 26.765625 -33.644531 28.328125 -32.5 C 28.828125 -34.101562 30.0625 -34.90625 32.03125 -34.90625 Z M 18.3125 -6.234375 C 20.414062 -6.234375 22.414062 -6.691406 24.3125 -7.609375 C 26.207031 -8.523438 27.519531 -9.898438 28.25 -11.734375 L 28.25 -23.171875 C 27.382812 -24.910156 26.070312 -26.257812 24.3125 -27.21875 C 22.550781 -28.1875 20.753906 -28.671875 18.921875 -28.671875 C 16.046875 -28.671875 13.726562 -27.617188 11.96875 -25.515625 C 10.207031 -23.410156 9.328125 -20.734375 9.328125 -17.484375 C 9.328125 -14.097656 10.148438 -11.375 11.796875 -9.3125 C 13.441406 -7.257812 15.613281 -6.234375 18.3125 -6.234375 Z M 18.3125 -6.234375 "/></g></g></g><g fill="#ffffff" fill-opacity="1"><g transform="translate(185.934238, 59.283109)"><g><path d="M 23.390625 -43.6875 C 25.035156 -43.6875 26.828125 -43.535156 28.765625 -43.234375 C 30.710938 -42.941406 32.550781 -42.382812 34.28125 -41.5625 C 36.019531 -40.738281 37.445312 -39.523438 38.5625 -37.921875 C 39.6875 -36.328125 40.25 -34.25 40.25 -31.6875 C 40.25 -30.21875 39.894531 -28.707031 39.1875 -27.15625 C 38.476562 -25.601562 37.484375 -24.460938 36.203125 -23.734375 C 38.585938 -22.765625 40.359375 -21.378906 41.515625 -19.578125 C 42.679688 -17.773438 43.265625 -15.660156 43.265625 -13.234375 C 43.265625 -10.585938 42.726562 -8.40625 41.65625 -6.6875 C 40.582031 -4.96875 39.15625 -3.617188 37.375 -2.640625 C 35.59375 -1.660156 33.613281 -0.972656 31.4375 -0.578125 C 29.269531 -0.191406 27.066406 0 24.828125 0 L 8.09375 0 C 7 0 6.050781 -0.351562 5.25 -1.0625 C 4.445312 -1.769531 4.046875 -2.628906 4.046875 -3.640625 L 4.046875 -40.046875 C 4.046875 -41.097656 4.445312 -41.96875 5.25 -42.65625 C 6.050781 -43.34375 7 -43.6875 8.09375 -43.6875 Z M 23.390625 -36.890625 L 12 -36.890625 L 12 -26.265625 L 23.59375 -26.265625 C 25.925781 -26.265625 27.972656 -26.6875 29.734375 -27.53125 C 31.492188 -28.375 32.375 -29.757812 32.375 -31.6875 C 32.375 -33.195312 31.859375 -34.316406 30.828125 -35.046875 C 29.796875 -35.773438 28.582031 -36.265625 27.1875 -36.515625 C 25.789062 -36.765625 24.523438 -36.890625 23.390625 -36.890625 Z M 26.8125 -19.46875 L 12 -19.46875 L 12 -6.796875 L 24.828125 -6.796875 C 26.472656 -6.796875 28.09375 -6.953125 29.6875 -7.265625 C 31.289062 -7.585938 32.609375 -8.21875 33.640625 -9.15625 C 34.671875 -10.09375 35.1875 -11.453125 35.1875 -13.234375 C 35.1875 -15.335938 34.375 -16.898438 32.75 -17.921875 C 31.125 -18.953125 29.144531 -19.46875 26.8125 -19.46875 Z M 26.8125 -19.46875 "/></g></g></g><g fill="#ffffff" fill-opacity="1"><g transform="translate(230.444706, 59.283109)"><g><path d="M 31.953125 -34.90625 C 33.140625 -34.90625 34.15625 -34.390625 35 -33.359375 C 35.851562 -32.328125 36.03125 -31.128906 35.53125 -29.765625 L 15.5 9.53125 C 15.039062 10.394531 14.457031 11.078125 13.75 11.578125 C 13.039062 12.085938 12.296875 12.34375 11.515625 12.34375 C 10.742188 12.34375 10.023438 12.078125 9.359375 11.546875 C 8.691406 11.023438 8.234375 10.351562 7.984375 9.53125 C 7.734375 8.707031 7.835938 7.835938 8.296875 6.921875 L 13.515625 -3.359375 L 0 -29.484375 C -0.414062 -30.398438 -0.472656 -31.269531 -0.171875 -32.09375 C 0.128906 -32.914062 0.617188 -33.585938 1.296875 -34.109375 C 1.984375 -34.640625 2.738281 -34.90625 3.5625 -34.90625 C 4.289062 -34.90625 5 -34.675781 5.6875 -34.21875 C 6.375 -33.757812 6.878906 -33.164062 7.203125 -32.4375 L 17.765625 -11.796875 L 28.328125 -32.5 C 28.640625 -33.238281 29.113281 -33.820312 29.75 -34.25 C 30.394531 -34.6875 31.128906 -34.90625 31.953125 -34.90625 Z M 31.953125 -34.90625 "/></g></g></g><g fill="#ffffff" fill-opacity="1"><g transform="translate(266.176476, 59.283109)"><g><path d="M 18.859375 -6.515625 C 19.910156 -7.109375 20.859375 -7.3125 21.703125 -7.125 C 22.546875 -6.945312 23.226562 -6.546875 23.75 -5.921875 C 24.28125 -5.304688 24.546875 -4.585938 24.546875 -3.765625 C 24.546875 -3.171875 24.363281 -2.578125 24 -1.984375 C 23.632812 -1.390625 23.0625 -0.890625 22.28125 -0.484375 C 21.28125 0.0664062 20.367188 0.398438 19.546875 0.515625 C 18.722656 0.628906 17.765625 0.6875 16.671875 0.6875 C 13.691406 0.6875 11.398438 0.0703125 9.796875 -1.15625 C 8.203125 -2.394531 7.109375 -4 6.515625 -5.96875 C 5.921875 -7.9375 5.625 -10.015625 5.625 -12.203125 L 5.625 -28.390625 L 3.015625 -28.390625 C 1.734375 -28.390625 0.785156 -28.734375 0.171875 -29.421875 C -0.441406 -30.109375 -0.75 -30.835938 -0.75 -31.609375 C -0.75 -32.429688 -0.429688 -33.1875 0.203125 -33.875 C 0.847656 -34.5625 1.785156 -34.90625 3.015625 -34.90625 L 5.625 -34.90625 L 5.625 -40.796875 C 5.625 -41.992188 6.007812 -42.890625 6.78125 -43.484375 C 7.5625 -44.078125 8.457031 -44.375 9.46875 -44.375 C 10.425781 -44.375 11.316406 -44.078125 12.140625 -43.484375 C 12.960938 -42.890625 13.375 -41.992188 13.375 -40.796875 L 13.375 -34.90625 L 18.71875 -34.90625 C 19.90625 -34.90625 20.816406 -34.5625 21.453125 -33.875 C 22.097656 -33.1875 22.421875 -32.429688 22.421875 -31.609375 C 22.421875 -30.785156 22.097656 -30.039062 21.453125 -29.375 C 20.816406 -28.71875 19.90625 -28.390625 18.71875 -28.390625 L 13.375 -28.390625 L 13.375 -12.203125 C 13.375 -11.203125 13.441406 -10.234375 13.578125 -9.296875 C 13.710938 -8.359375 14.019531 -7.578125 14.5 -6.953125 C 14.976562 -6.335938 15.703125 -6.03125 16.671875 -6.03125 C 17.035156 -6.03125 17.429688 -6.085938 17.859375 -6.203125 C 18.296875 -6.316406 18.628906 -6.421875 18.859375 -6.515625 Z M 18.859375 -6.515625 "/></g></g></g><g fill="#ffffff" fill-opacity="1"><g transform="translate(289.974701, 59.283109)"><g><path d="M 19.609375 -6.109375 C 20.941406 -6.109375 22.242188 -6.289062 23.515625 -6.65625 C 24.796875 -7.019531 25.988281 -7.632812 27.09375 -8.5 C 28.144531 -9.457031 29.171875 -9.898438 30.171875 -9.828125 C 31.179688 -9.765625 32.015625 -9.398438 32.671875 -8.734375 C 33.335938 -8.078125 33.671875 -7.253906 33.671875 -6.265625 C 33.671875 -5.285156 33.191406 -4.335938 32.234375 -3.421875 C 30.628906 -1.867188 28.726562 -0.785156 26.53125 -0.171875 C 24.34375 0.441406 22.101562 0.726562 19.8125 0.6875 C 16.25 0.6875 13.109375 -0.0390625 10.390625 -1.5 C 7.671875 -2.96875 5.546875 -5.003906 4.015625 -7.609375 C 2.484375 -10.210938 1.71875 -13.234375 1.71875 -16.671875 C 1.71875 -20.410156 2.445312 -23.695312 3.90625 -26.53125 C 5.375 -29.375 7.441406 -31.59375 10.109375 -33.1875 C 12.785156 -34.789062 15.953125 -35.59375 19.609375 -35.59375 C 23.265625 -35.59375 26.375 -34.847656 28.9375 -33.359375 C 31.5 -31.878906 33.453125 -29.800781 34.796875 -27.125 C 36.148438 -24.445312 36.828125 -21.328125 36.828125 -17.765625 C 36.828125 -16.617188 36.597656 -15.644531 36.140625 -14.84375 C 35.679688 -14.039062 34.46875 -13.640625 32.5 -13.640625 L 9.671875 -13.640625 C 10.304688 -11.398438 11.515625 -9.582031 13.296875 -8.1875 C 15.085938 -6.800781 17.191406 -6.109375 19.609375 -6.109375 Z M 19.6875 -28.796875 C 17.03125 -28.796875 14.8125 -27.960938 13.03125 -26.296875 C 11.25 -24.628906 10.101562 -22.445312 9.59375 -19.75 L 29.5625 -19.75 C 29.332031 -22.445312 28.4375 -24.628906 26.875 -26.296875 C 25.320312 -27.960938 22.925781 -28.796875 19.6875 -28.796875 Z M 19.6875 -28.796875 "/></g></g></g><g fill="#ffffff" fill-opacity="1"><g transform="translate(329.821477, 59.283109)"><g><path d="M 0.890625 -8.15625 C 0.566406 -9.4375 0.863281 -10.460938 1.78125 -11.234375 C 2.695312 -12.015625 3.703125 -12.40625 4.796875 -12.40625 C 5.617188 -12.40625 6.347656 -12.164062 6.984375 -11.6875 C 7.628906 -11.207031 8.113281 -10.488281 8.4375 -9.53125 C 8.707031 -8.707031 9.300781 -8.03125 10.21875 -7.5 C 11.132812 -6.976562 12.195312 -6.601562 13.40625 -6.375 C 14.613281 -6.144531 15.835938 -6.03125 17.078125 -6.03125 C 19.546875 -6.03125 21.535156 -6.472656 23.046875 -7.359375 C 24.554688 -8.253906 25.3125 -9.390625 25.3125 -10.765625 C 25.3125 -11.722656 24.910156 -12.429688 24.109375 -12.890625 C 23.304688 -13.347656 22.253906 -13.664062 20.953125 -13.84375 C 19.648438 -14.03125 18.265625 -14.171875 16.796875 -14.265625 C 14.878906 -14.441406 12.992188 -14.664062 11.140625 -14.9375 C 9.285156 -15.21875 7.601562 -15.6875 6.09375 -16.34375 C 4.59375 -17.007812 3.382812 -17.992188 2.46875 -19.296875 C 1.550781 -20.609375 1.09375 -22.382812 1.09375 -24.625 C 1.09375 -26.8125 1.734375 -28.726562 3.015625 -30.375 C 4.296875 -32.019531 6.101562 -33.300781 8.4375 -34.21875 C 10.769531 -35.132812 13.46875 -35.59375 16.53125 -35.59375 C 18.3125 -35.59375 20.226562 -35.421875 22.28125 -35.078125 C 24.34375 -34.734375 26.253906 -34.035156 28.015625 -32.984375 C 29.773438 -31.929688 31.066406 -30.304688 31.890625 -28.109375 C 32.210938 -27.203125 32.1875 -26.394531 31.8125 -25.6875 C 31.445312 -24.976562 30.910156 -24.4375 30.203125 -24.0625 C 29.492188 -23.695312 28.773438 -23.515625 28.046875 -23.515625 C 27.222656 -23.515625 26.546875 -23.675781 26.015625 -24 C 25.492188 -24.320312 25.050781 -24.867188 24.6875 -25.640625 C 24.28125 -26.609375 23.582031 -27.316406 22.59375 -27.765625 C 21.613281 -28.222656 20.5625 -28.507812 19.4375 -28.625 C 18.320312 -28.738281 17.351562 -28.796875 16.53125 -28.796875 C 14.238281 -28.796875 12.394531 -28.40625 11 -27.625 C 9.613281 -26.851562 8.921875 -25.828125 8.921875 -24.546875 C 8.921875 -23.453125 9.285156 -22.707031 10.015625 -22.3125 C 10.742188 -21.925781 11.734375 -21.695312 12.984375 -21.625 C 14.242188 -21.5625 15.65625 -21.441406 17.21875 -21.265625 C 19.132812 -21.035156 21.03125 -20.78125 22.90625 -20.5 C 24.78125 -20.226562 26.492188 -19.757812 28.046875 -19.09375 C 29.597656 -18.4375 30.832031 -17.457031 31.75 -16.15625 C 32.664062 -14.851562 33.125 -13.054688 33.125 -10.765625 C 33.125 -8.523438 32.445312 -6.535156 31.09375 -4.796875 C 29.75 -3.054688 27.875 -1.707031 25.46875 -0.75 C 23.070312 0.207031 20.273438 0.6875 17.078125 0.6875 C 15.660156 0.6875 14.113281 0.582031 12.4375 0.375 C 10.769531 0.164062 9.148438 -0.242188 7.578125 -0.859375 C 6.003906 -1.472656 4.617188 -2.363281 3.421875 -3.53125 C 2.234375 -4.695312 1.390625 -6.238281 0.890625 -8.15625 Z M 0.890625 -8.15625 "/></g></g></g></svg>