<svg xmlns="http://www.w3.org/2000/svg" xmlns:xlink="http://www.w3.org/1999/xlink" width="40" zoomAndPan="magnify" viewBox="0 0 30 30.000001" height="40" preserveAspectRatio="xMidYMid meet" version="1.0"><defs><clipPath id="be0177544c"><path d="M 7 6 L 17 6 L 17 27.878906 L 7 27.878906 Z M 7 6 " clip-rule="nonzero"/></clipPath><clipPath id="0f4ebb3a1c"><path d="M 3.617188 1.027344 L 26.117188 1.027344 L 26.117188 27.878906 L 3.617188 27.878906 Z M 3.617188 1.027344 " clip-rule="nonzero"/></clipPath></defs><g clip-path="url(#be0177544c)"><path fill="#ffde59" d="M 16.046875 16.695312 L 7.683594 28.003906 L 10.199219 23.117188 L 10.597656 22.347656 L 12.796875 18.082031 C 12.992188 17.703125 12.800781 17.277344 12.402344 17.210938 L 8.824219 16.617188 C 8.414062 16.550781 8.226562 16.101562 8.449219 15.71875 C 9.515625 13.886719 12.167969 9.324219 12.828125 8.070312 C 12.921875 7.894531 13.085938 7.761719 13.277344 7.710938 L 16.570312 6.789062 C 15.726562 8.332031 13.105469 12.789062 12.097656 14.515625 C 11.875 14.898438 11.738281 15.199219 12.6875 15.332031 L 15.652344 15.824219 C 16.050781 15.890625 16.242188 16.316406 16.046875 16.695312 " fill-opacity="1" fill-rule="nonzero"/></g><g clip-path="url(#0f4ebb3a1c)"><path fill="#ffbd59" d="M 24.578125 18.980469 L 21.507812 15.804688 L 21.144531 15.429688 C 20.828125 15.101562 20.269531 15.128906 19.917969 15.492188 L 17.910156 17.542969 L 13.46875 22.085938 L 13.210938 22.347656 L 12.523438 23.050781 C 12.277344 23.304688 12.378906 23.703125 12.707031 23.753906 C 13.390625 23.851562 14.097656 23.902344 14.835938 23.902344 C 16.960938 23.902344 18.894531 23.527344 20.640625 22.777344 C 21.179688 22.542969 21.691406 22.28125 22.183594 21.988281 C 23.03125 21.476562 23.804688 20.871094 24.507812 20.167969 C 24.851562 19.824219 24.882812 19.296875 24.578125 18.980469 Z M 26.09375 4.722656 C 25.222656 3.632812 24.125 2.777344 22.804688 2.152344 C 21.214844 1.402344 19.359375 1.027344 17.234375 1.027344 C 15.828125 1.027344 14.484375 1.207031 13.210938 1.566406 C 12.390625 1.796875 11.597656 2.101562 10.832031 2.480469 C 8.878906 3.449219 7.28125 4.804688 6.046875 6.542969 C 4.8125 8.28125 4.082031 10.257812 3.847656 12.464844 C 3.617188 14.671875 3.9375 16.648438 4.804688 18.386719 C 5.136719 19.050781 5.535156 19.65625 5.996094 20.207031 C 6.722656 21.078125 7.609375 21.808594 8.65625 22.398438 L 7.683594 28.003906 L 10.199219 23.117188 L 10.597656 22.347656 L 12.796875 18.082031 C 12.992188 17.703125 12.800781 17.277344 12.402344 17.210938 L 8.824219 16.617188 C 8.414062 16.550781 8.226562 16.101562 8.449219 15.71875 C 9.515625 13.886719 12.167969 9.324219 12.828125 8.070312 C 12.921875 7.894531 13.085938 7.761719 13.277344 7.710938 L 16.570312 6.789062 L 20.355469 5.734375 C 20.917969 5.574219 21.320312 6.15625 20.992188 6.652344 L 20.085938 8.035156 L 17.097656 12.597656 L 21.75 9.070312 L 25.871094 5.945312 C 26.277344 5.636719 26.378906 5.078125 26.09375 4.722656 " fill-opacity="1" fill-rule="nonzero"/></g></svg>